<svg width="800" height="839" viewBox="0 0 800 839" fill="none" xmlns="http://www.w3.org/2000/svg">
<g clip-path="url(#clip0_5494_58153)">
<path d="M794.969 0H489.057C486.541 0 484.528 2.01332 484.528 4.52982V205.346C484.528 207.863 486.038 209.373 488.553 209.876C500.126 211.386 518.742 212.393 534.843 212.896C542.893 212.896 549.937 213.399 555.975 213.399H563.522C566.038 213.399 568.05 211.386 568.05 208.869V88.0774C568.05 85.5609 570.063 83.5479 572.579 83.5479H711.447C713.962 83.5479 715.975 85.5609 715.975 88.0774V750.923C715.975 753.439 713.962 755.453 711.447 755.453H571.069C571.069 755.453 571.069 755.453 570.566 755.453C568.554 755.453 566.541 753.943 566.541 751.929C566.541 751.426 566.541 751.426 566.541 750.923C554.969 632.647 471.95 535.007 362.767 499.776C334.591 490.717 304.906 486.187 274.717 486.187H136.352C133.837 486.187 131.824 488.2 131.824 490.717V565.205C131.824 567.722 133.837 569.735 136.352 569.735H229.937C229.937 569.735 230.944 569.735 233.459 569.735C247.044 569.735 298.868 570.238 316.981 573.761L319.497 574.265C326.038 575.775 332.076 577.285 338.113 579.298C376.855 591.377 411.572 615.032 437.233 646.74C467.925 683.984 484.528 730.791 484.528 779.108V834.471C484.528 836.987 486.541 839 489.057 839H795.472C797.987 839 800 836.987 800 834.471V4.52982C799.497 2.01332 797.484 0 794.969 0ZM664.654 260.709H567.547C567.547 260.709 552.453 260.709 534.34 260.206C516.226 259.703 495.598 258.696 484.025 256.683L482.516 256.18L481.006 255.676C462.893 251.65 445.283 245.107 428.679 236.551C403.522 223.465 380.881 205.346 362.767 183.201C332.579 145.957 315.472 98.6469 315.472 50.8334V4.52982C315.472 2.01332 313.459 0 310.943 0H4.52842C2.0127 0 0 2.01332 0 4.52982V834.471C0 836.987 2.0127 839 4.52842 839H310.943C313.459 839 315.472 836.987 315.472 834.471V624.091C315.472 621.575 313.962 620.065 311.447 619.562C297.359 617.548 272.201 616.542 253.585 616.039H237.484C234.969 616.039 232.956 618.052 232.956 620.568V750.419C232.956 752.936 230.944 754.949 228.428 754.949H89.5598C87.0441 754.949 85.0316 752.936 85.0316 750.419V88.0774C85.0316 85.5609 87.0441 83.5479 89.5598 83.5479H230.944C232.956 83.5479 234.969 85.0578 235.472 87.071C248.05 187.731 311.447 272.788 399.497 315.066C425.157 327.648 453.333 336.204 482.516 340.734C496.604 342.747 511.698 344.257 526.289 344.257H664.654C667.17 344.257 669.182 342.244 669.182 339.727V265.239C669.182 262.722 667.17 260.709 664.654 260.709Z" fill="white"/>
</g>
<defs>
<clipPath id="clip0_5494_58153">
<rect width="800" height="839" fill="white"/>
</clipPath>
</defs>
</svg>
