<svg fill="none" height="32" viewBox="0 0 149 32" width="149" xmlns="http://www.w3.org/2000/svg" xmlns:xlink="http://www.w3.org/1999/xlink"><clipPath id="a"><path d="m0 0h30v32h-30z"/></clipPath><mask id="b" height="32" maskUnits="userSpaceOnUse" width="30" x="0" y="0"><path d="m30 0h-30v32h30z" fill="#fff"/></mask><g clip-path="url(#a)"><g mask="url(#b)"><path d="m29.8113 0h-11.4717c-.0943 0-.1698.0767893-.1698.17277v7.65926c0 .096.0566.15359.1509.17278.434.05759 1.1321.096 1.7359.11518.3019 0 .566.01919.7925.01919h.283c.0943 0 .1698-.07678.1698-.17278v-4.60707c0-.09598.0755-.17276.1698-.17276h5.2076c.0943 0 .1698.07678.1698.17276v25.28137c0 .0959-.0755.1728-.1698.1728h-5.2642s0 0-.0189 0c-.0754 0-.1509-.0576-.1509-.1344 0-.0192 0-.0192 0-.0384-.434-4.5111-3.5472-8.2352-7.6415-9.5789-1.0566-.3455-2.1698-.5183-3.3019-.5183h-5.1887c-.09431 0-.1698.0768-.1698.1728v2.841c0 .096.07549.1728.1698.1728h3.50944.13207c.50944 0 2.45279.0191 3.13209.1535l.0943.0192c.2453.0576.4718.1152.6981.192 1.4529.4607 2.7548 1.3629 3.717 2.5723 1.151 1.4205 1.7736 3.2057 1.7736 5.0486v2.1116c0 .0959.0755.1727.1698.1727h11.4906c.0943 0 .1698-.0768.1698-.1727v-31.65453c-.0189-.0959807-.0943-.17277-.1887-.17277zm-4.8868 9.94361h-3.6415s-.566 0-1.2452-.01919c-.6793-.01918-1.4529-.05759-1.8869-.13436l-.0565-.01919-.0567-.01922c-.6792-.15356-1.3396-.40311-1.9622-.72944-.9434-.49911-1.7925-1.19018-2.4717-2.03481-1.1321-1.42051-1.7736-3.22494-1.7736-5.04858v-1.76605c0-.0959807-.0755-.17277-.1698-.17277h-11.490584c-.0943397 0-.169816.0767893-.169816.17277v31.65453c0 .0959.0754763.1727.169816.1727h11.490584c.0943 0 .1698-.0768.1698-.1727v-8.0241c0-.0959-.0566-.1535-.1509-.1727-.5283-.0768-1.4718-.1152-2.16986-.1344h-.60379c-.09431 0-.1698.0768-.1698.1728v4.9526c0 .096-.07545.1727-.1698.1727h-5.20756c-.09434 0-.1698-.0767-.1698-.1727v-25.26217c0-.09598.07546-.17276.1698-.17276h5.30191c.07545 0 .15094.05759.1698.13437.47168 3.83924 2.8491 7.08336 6.1509 8.69586.9623.4799 2.0189.8062 3.1133.979.5283.0768 1.0943.1344 1.6414.1344h5.1887c.0944 0 .1698-.0768.1698-.1728v-2.841c0-.096-.0754-.17279-.1698-.17279z" fill="#000"/></g></g><g fill="#000"><path d="m41.7227 25.0018v-17.45457h11.3522v2.65057h-8.1903v4.7386h7.6023v2.6506h-7.6023v4.7642h8.2585v2.6506z"/><path d="m70.6445 7.54723v17.45457h-2.8125l-8.2244-11.8892h-.1449v11.8892h-3.1619v-17.45457h2.8295l8.2159 11.89777h.1534v-11.89777z"/><path d="m83.5756 12.3455c-.0795-.7443-.4147-1.3238-1.0056-1.7386-.5853-.4148-1.3466-.62217-2.2841-.62217-.6591 0-1.2245.09947-1.6961.29827-.4715.1989-.8323.4688-1.0823.8097s-.3779.7301-.3836 1.1676c0 .3636.0824.679.2472.946.1704.2671.4006.4943.6903.6818.2898.1819.6108.3353.9631.4603s.7074.2301 1.0653.3153l1.6364.4091c.6591.1534 1.2926.3608 1.9006.6222.6136.2613 1.1619.5909 1.6449.9886.4886.3977.875.8778 1.1591 1.4403.284.5625.4261 1.2216.4261 1.9773 0 1.0227-.2614 1.9233-.7841 2.7017-.5227.7727-1.2784 1.3779-2.267 1.8154-.983.4318-2.1733.6477-3.5711.6477-1.3579 0-2.5369-.2102-3.5369-.6307-.9943-.4205-1.7727-1.0341-2.3352-1.8409-.5568-.8068-.858-1.7898-.9034-2.9489h3.1108c.0454.608.2329 1.1137.5625 1.5171.3295.4034.7585.7045 1.2869.9034.5341.1988 1.1307.2983 1.7898.2983.6875 0 1.2897-.1023 1.8068-.3068.5227-.2103.9318-.5 1.2273-.8694.2954-.375.446-.8125.4517-1.3125-.0057-.4545-.1392-.8295-.4006-1.125-.2614-.3011-.6279-.5511-1.0994-.75-.466-.2045-1.0114-.3863-1.6364-.5454l-1.9858-.5114c-1.4375-.3693-2.5739-.929-3.4091-1.679-.8295-.7556-1.2443-1.7585-1.2443-3.0085 0-1.0284.2784-1.929.8352-2.70168.5625-.77273 1.3267-1.37216 2.2926-1.7983.9659-.43182 2.0597-.64773 3.2813-.64773 1.2386 0 2.3238.21591 3.2557.64773.9375.42614 1.6733 1.01989 2.2073 1.78125.5341.75573.8097 1.62503.8268 2.60793z"/><path d="m104.02 7.54723v17.45457h-2.813l-8.2244-11.8892h-.1449v11.8892h-3.1619v-17.45457h2.8295l8.2157 11.89777h.154v-11.89777z"/><path d="m113.039 25.2575c-1.279 0-2.387-.2813-3.324-.8438-.938-.5625-1.665-1.3494-2.182-2.3608-.511-1.0114-.767-2.1932-.767-3.5454 0-1.3523.256-2.537.767-3.554.517-1.0171 1.244-1.8068 2.182-2.3693.937-.5625 2.045-.8438 3.324-.8438 1.278 0 2.386.2813 3.324.8438.937.5625 1.662 1.3522 2.173 2.3693.517 1.017.775 2.2017.775 3.554 0 1.3522-.258 2.534-.775 3.5454-.511 1.0114-1.236 1.7983-2.173 2.3608-.938.5625-2.046.8438-3.324.8438zm.017-2.4716c.693 0 1.272-.1904 1.738-.5711.466-.3863.813-.9034 1.04-1.5511.233-.6477.35-1.3693.35-2.1648 0-.8011-.117-1.5255-.35-2.1733-.227-.6534-.574-1.1733-1.04-1.5596-.466-.3864-1.045-.5796-1.738-.5796-.71 0-1.301.1932-1.773.5796-.466.3863-.815.9062-1.048 1.5596-.228.6478-.341 1.3722-.341 2.1733 0 .7955.113 1.5171.341 2.1648.233.6477.582 1.1648 1.048 1.5511.472.3807 1.063.5711 1.773.5711z"/><path d="m126.788 25.2319c-1.028 0-1.949-.2642-2.761-.7926-.813-.5284-1.455-1.2955-1.927-2.3012-.471-1.0056-.707-2.2272-.707-3.6647 0-1.4546.239-2.6819.716-3.6819.483-1.0056 1.134-1.7642 1.952-2.2755.818-.5171 1.73-.7756 2.736-.7756.767 0 1.397.1307 1.892.3921.494.2556.886.5653 1.176.9289.289.358.514.6961.673 1.0142h.128v-6.52837h3.094v17.45457h-3.035v-2.0625h-.187c-.159.3182-.389.6562-.69 1.0142-.301.3523-.699.6534-1.194.9034-.494.25-1.116.375-1.866.375zm.861-2.5313c.653 0 1.21-.1761 1.67-.5284.46-.3579.81-.8551 1.049-1.4914.238-.6364.357-1.3779.357-2.2245s-.119-1.5824-.357-2.2074c-.233-.625-.58-1.1108-1.04-1.4574-.455-.3465-1.014-.5198-1.679-.5198-.688 0-1.262.1789-1.722.5369-.46.3579-.807.8523-1.04 1.4829-.233.6307-.349 1.3523-.349 2.1648 0 .8182.116 1.5483.349 2.1904.239.6363.588 1.1392 1.049 1.5085.466.3636 1.037.5454 1.713.5454z"/><path d="m142.843 25.2575c-1.313 0-2.446-.2728-3.401-.8182-.949-.5512-1.679-1.3296-2.19-2.3353-.512-1.0113-.767-2.2017-.767-3.571 0-1.3466.255-2.5284.767-3.5454.517-1.0228 1.238-1.8182 2.165-2.3864.926-.5739 2.014-.8608 3.264-.8608.807 0 1.568.1307 2.284.3921.721.2556 1.358.6534 1.909 1.1931.557.5398.994 1.2273 1.312 2.0625.319.8296.478 1.8182.478 2.9659v.9461h-10.73v-2.0796h7.772c-.005-.5909-.133-1.1165-.383-1.5767-.25-.4659-.6-.8324-1.048-1.0994-.444-.2671-.961-.4006-1.552-.4006-.63 0-1.184.1534-1.662.4602-.477.3012-.849.6989-1.116 1.1932-.261.4887-.395 1.0256-.401 1.6108v1.8154c0 .7613.14 1.4147.418 1.9602.278.5398.668.9545 1.168 1.2443.5.2841 1.085.4261 1.755.4261.449 0 .855-.0625 1.219-.1875.364-.1306.679-.321.946-.571s.469-.5596.605-.929l2.881.3239c-.182.7614-.529 1.4261-1.04 1.9943-.506.5625-1.153 1-1.943 1.3125-.79.3068-1.693.4603-2.71.4603z"/></g></svg>
