<svg width="123" height="28" viewBox="0 0 123 28" fill="none" xmlns="http://www.w3.org/2000/svg">
<path d="M41.375 21.0004V7.90945H50.196V10.1914H44.1428V13.3107H49.7422V15.5927H44.1428V18.7184H50.2216V21.0004H41.375Z" fill="black"/>
<path d="M63.3461 7.90945V21.0004H60.9554L55.2601 12.761H55.1642V21.0004H52.3965V7.90945H54.8255L60.476 16.1424H60.5911V7.90945H63.3461Z" fill="black"/>
<path d="M72.7344 11.6744C72.6832 11.1587 72.4638 10.7582 72.076 10.4727C71.6882 10.1871 71.1619 10.0444 70.4972 10.0444C70.0455 10.0444 69.6641 10.1083 69.353 10.2362C69.0419 10.3597 68.8033 10.5323 68.6371 10.7539C68.4751 10.9755 68.3942 11.2269 68.3942 11.5082C68.3857 11.7425 68.4347 11.9471 68.5412 12.1218C68.652 12.2965 68.8033 12.4478 68.995 12.5756C69.1868 12.6992 69.4084 12.8079 69.6598 12.9016C69.9112 12.9911 70.1797 13.0678 70.4652 13.1317L71.6413 13.413C72.2124 13.5408 72.7365 13.7113 73.2138 13.9244C73.6911 14.1374 74.1044 14.3995 74.4538 14.7106C74.8033 15.0217 75.0739 15.3881 75.2656 15.81C75.4616 16.2319 75.5618 16.7156 75.5661 17.261C75.5618 18.0621 75.3572 18.7567 74.9524 19.3448C74.5518 19.9286 73.9723 20.3825 73.2138 20.7063C72.4595 21.0259 71.5497 21.1857 70.4844 21.1857C69.4276 21.1857 68.5071 21.0238 67.723 20.6999C66.9432 20.3761 66.3338 19.8967 65.8949 19.2617C65.4602 18.6225 65.2322 17.832 65.2109 16.8903H67.8892C67.919 17.3292 68.0447 17.6957 68.2663 17.9897C68.4922 18.2795 68.7926 18.4989 69.1676 18.6481C69.5469 18.793 69.9751 18.8654 70.4524 18.8654C70.9212 18.8654 71.3281 18.7972 71.6733 18.6609C72.0227 18.5245 72.2933 18.3349 72.4851 18.092C72.6768 17.8491 72.7727 17.57 72.7727 17.2546C72.7727 16.9606 72.6854 16.7134 72.5107 16.5131C72.3402 16.3129 72.0888 16.1424 71.7564 16.0018C71.4283 15.8612 71.0256 15.7333 70.5483 15.6183L69.1229 15.2603C68.0192 14.9918 67.1477 14.5721 66.5085 14.0011C65.8693 13.43 65.5518 12.6609 65.5561 11.6935C65.5518 10.9009 65.7628 10.2085 66.1889 9.61612C66.6193 9.02379 67.2095 8.56143 67.9595 8.22905C68.7095 7.89666 69.5618 7.73047 70.5163 7.73047C71.4879 7.73047 72.3359 7.89666 73.0604 8.22905C73.7891 8.56143 74.3558 9.02379 74.7607 9.61612C75.1655 10.2085 75.3743 10.8945 75.3871 11.6744H72.7344Z" fill="black"/>
<path d="M88.3773 7.90945V21.0004H85.9867L80.2914 12.761H80.1955V21.0004H77.4277V7.90945H79.8567L85.5073 16.1424H85.6223V7.90945H88.3773Z" fill="black"/>
<path d="M95.049 21.1921C94.0561 21.1921 93.1974 20.9812 92.473 20.5593C91.7528 20.1332 91.1967 19.5408 90.8047 18.7823C90.4126 18.0195 90.2166 17.1353 90.2166 16.1296C90.2166 15.1154 90.4126 14.229 90.8047 13.4705C91.1967 12.7077 91.7528 12.1154 92.473 11.6935C93.1974 11.2674 94.0561 11.0543 95.049 11.0543C96.0419 11.0543 96.8984 11.2674 97.6186 11.6935C98.343 12.1154 98.9013 12.7077 99.2933 13.4705C99.6854 14.229 99.8814 15.1154 99.8814 16.1296C99.8814 17.1353 99.6854 18.0195 99.2933 18.7823C98.9013 19.5408 98.343 20.1332 97.6186 20.5593C96.8984 20.9812 96.0419 21.1921 95.049 21.1921ZM95.0618 19.0827C95.5135 19.0827 95.8906 18.9549 96.1932 18.6992C96.4957 18.4393 96.7237 18.0856 96.8771 17.6381C97.0348 17.1907 97.1136 16.6815 97.1136 16.1104C97.1136 15.5394 97.0348 15.0302 96.8771 14.5827C96.7237 14.1353 96.4957 13.7816 96.1932 13.5217C95.8906 13.2617 95.5135 13.1317 95.0618 13.1317C94.6058 13.1317 94.2223 13.2617 93.9112 13.5217C93.6044 13.7816 93.3722 14.1353 93.2145 14.5827C93.0611 15.0302 92.9844 15.5394 92.9844 16.1104C92.9844 16.6815 93.0611 17.1907 93.2145 17.6381C93.3722 18.0856 93.6044 18.4393 93.9112 18.6992C94.2223 18.9549 94.6058 19.0827 95.0618 19.0827Z" fill="black"/>
<path d="M105.27 21.1602C104.524 21.1602 103.849 20.9684 103.244 20.5849C102.643 20.1971 102.165 19.6282 101.812 18.8782C101.462 18.1239 101.288 17.1992 101.288 16.104C101.288 14.979 101.469 14.0437 101.831 13.2979C102.193 12.5479 102.675 11.9876 103.276 11.6168C103.881 11.2418 104.543 11.0543 105.263 11.0543C105.813 11.0543 106.271 11.1481 106.638 11.3356C107.009 11.5188 107.307 11.7489 107.533 12.0259C107.763 12.2987 107.937 12.5671 108.057 12.8313H108.14V7.90945H110.857V21.0004H108.172V19.4279H108.057C107.929 19.7006 107.748 19.9712 107.513 20.2397C107.283 20.5039 106.983 20.7234 106.612 20.8981C106.246 21.0728 105.798 21.1602 105.27 21.1602ZM106.133 18.9933C106.572 18.9933 106.942 18.8739 107.245 18.6353C107.552 18.3924 107.786 18.0536 107.948 17.619C108.114 17.1843 108.197 16.6751 108.197 16.0913C108.197 15.5075 108.116 15.0004 107.955 14.57C107.793 14.1396 107.558 13.8072 107.251 13.5728C106.945 13.3384 106.572 13.2212 106.133 13.2212C105.685 13.2212 105.308 13.3427 105.001 13.5856C104.695 13.8285 104.462 14.1651 104.305 14.5955C104.147 15.0259 104.068 15.5245 104.068 16.0913C104.068 16.6623 104.147 17.1673 104.305 17.6062C104.467 18.0408 104.699 18.3817 105.001 18.6289C105.308 18.8718 105.685 18.9933 106.133 18.9933Z" fill="black"/>
<path d="M117.57 21.1921C116.56 21.1921 115.691 20.9876 114.962 20.5785C114.237 20.1651 113.679 19.5813 113.287 18.8271C112.895 18.0685 112.699 17.1715 112.699 16.136C112.699 15.1261 112.895 14.2397 113.287 13.4769C113.679 12.7141 114.231 12.1197 114.943 11.6935C115.659 11.2674 116.498 11.0543 117.461 11.0543C118.109 11.0543 118.712 11.1587 119.27 11.3675C119.833 11.5721 120.323 11.881 120.74 12.2944C121.162 12.7077 121.49 13.2276 121.725 13.854C121.959 14.4762 122.076 15.2049 122.076 16.0401V16.788H113.786V15.1005H119.513C119.513 14.7085 119.428 14.3612 119.257 14.0586C119.087 13.756 118.85 13.5195 118.548 13.3491C118.249 13.1744 117.902 13.087 117.506 13.087C117.093 13.087 116.726 13.1829 116.406 13.3746C116.091 13.5621 115.844 13.8157 115.665 14.1353C115.486 14.4506 115.394 14.8022 115.39 15.19V16.7944C115.39 17.2802 115.48 17.6999 115.659 18.0536C115.842 18.4073 116.1 18.68 116.432 18.8718C116.764 19.0636 117.159 19.1594 117.615 19.1594C117.917 19.1594 118.194 19.1168 118.445 19.0316C118.697 18.9464 118.912 18.8185 119.091 18.6481C119.27 18.4776 119.406 18.2688 119.5 18.0217L122.019 18.1879C121.891 18.793 121.629 19.3214 121.232 19.7731C120.84 20.2205 120.333 20.57 119.711 20.8214C119.093 21.0685 118.379 21.1921 117.57 21.1921Z" fill="black"/>
<g clip-path="url(#clip0_3067_31)">
<path d="M24 1H4C2.34315 1 1 2.34315 1 4V24C1 25.6569 2.34315 27 4 27H24C25.6569 27 27 25.6569 27 24V4C27 2.34315 25.6569 1 24 1Z" fill="#528BFF" stroke="black" stroke-width="2"/>
<path d="M8.11509 12.4324C8.29734 12.8207 8.749 13.5893 8.749 13.5893L13.939 5.00781L8.86785 8.54183C8.56675 8.73992 8.32111 9.01726 8.14679 9.33421C7.67928 10.3088 7.67136 11.4419 8.11509 12.4324Z" fill="url(#paint0_linear_3067_31)"/>
<path d="M6.05691 15.2548C6.17576 16.9188 6.99984 18.4481 8.32311 19.4544L13.9252 23.3608C13.9252 23.3608 10.4229 18.3054 7.45942 13.2817C7.15831 12.7509 6.96022 12.1724 6.86513 11.5702C6.82551 11.3008 6.82551 11.0235 6.86513 10.7461C6.7859 10.8888 6.63534 11.1819 6.63534 11.1819C6.33424 11.7921 6.12822 12.4497 6.03313 13.1233C5.98559 13.8285 5.98559 14.5496 6.05691 15.2548Z" fill="white"/>
<path d="M20.3513 15.9342C20.1691 15.5459 19.7174 14.7773 19.7174 14.7773L14.5273 23.3588L19.5907 19.8248C19.8918 19.6267 20.1374 19.3494 20.3117 19.0324C20.7871 18.0499 20.7951 16.9168 20.3513 15.9342Z" fill="url(#paint1_linear_3067_31)"/>
<path d="M22.4113 13.106C22.2924 11.4421 21.4684 9.91276 20.1451 8.90643L14.543 5C14.543 5 18.0453 10.0554 21.0088 15.0791C21.3099 15.61 21.508 16.1884 21.6031 16.7906C21.6427 17.06 21.6427 17.3374 21.6031 17.6147C21.6823 17.4721 21.8329 17.1789 21.8329 17.1789C22.134 16.5687 22.34 15.9111 22.4351 15.2376C22.4826 14.5323 22.4826 13.8192 22.4113 13.106Z" fill="white"/>
<path d="M8.14879 9.33421C8.32311 9.01726 8.56875 8.73992 8.86986 8.54183L13.9332 5.00781L8.74307 13.5893C8.74307 13.5893 8.29142 12.8207 8.10917 12.4324C7.66544 11.4419 7.68129 10.3088 8.14879 9.33421ZM6.05691 15.2533C6.17576 16.9173 6.99984 18.4466 8.32311 19.4529L13.9252 23.3593C13.9252 23.3593 10.4229 18.304 7.45942 13.2803C7.15831 12.7494 6.96022 12.1709 6.86513 11.5687C6.82551 11.2993 6.82551 11.022 6.86513 10.7446C6.7859 10.8873 6.63534 11.1805 6.63534 11.1805C6.33424 11.7906 6.12822 12.4483 6.03313 13.1218C5.98559 13.827 5.98559 14.5481 6.05691 15.2533ZM20.3435 15.9347C20.1613 15.5465 19.7096 14.7779 19.7096 14.7779L14.5274 23.3593L19.5908 19.8253C19.8919 19.6272 20.1375 19.3499 20.3118 19.0329C20.7793 18.0583 20.7952 16.9252 20.3435 15.9347ZM22.4037 13.1139C22.2849 11.4499 21.4608 9.92057 20.1375 8.91425L14.5433 5.00781C14.5433 5.00781 18.0456 10.0632 21.0091 15.0869C21.3102 15.6178 21.5083 16.1962 21.6034 16.7984C21.643 17.0678 21.643 17.3452 21.6034 17.6225C21.6826 17.4799 21.8332 17.1867 21.8332 17.1867C22.1343 16.5766 22.3403 15.9189 22.4354 15.2454C22.4909 14.5322 22.4909 13.8191 22.4196 13.1059L22.4037 13.1139Z" fill="white"/>
</g>
<defs>
<linearGradient id="paint0_linear_3067_31" x1="14.16" y1="5.21238" x2="7.49758" y2="12.4349" gradientUnits="userSpaceOnUse">
<stop offset="0.58" stop-color="#A0A8D4"/>
<stop offset="0.73" stop-color="#8791C7"/>
<stop offset="0.91" stop-color="#6470B4"/>
</linearGradient>
<linearGradient id="paint1_linear_3067_31" x1="14.3054" y1="23.1498" x2="20.9688" y2="15.9286" gradientUnits="userSpaceOnUse">
<stop offset="0.58" stop-color="#A0A8D4"/>
<stop offset="0.73" stop-color="#8791C7"/>
<stop offset="0.91" stop-color="#6470B4"/>
</linearGradient>
<clipPath id="clip0_3067_31">
<rect width="28" height="28" fill="white"/>
</clipPath>
</defs>
</svg>
